<mxfile host="Electron" agent="Mozilla/5.0 (Windows NT 10.0; Win64; x64) AppleWebKit/537.36 (KHTML, like Gecko) draw.io/24.7.8 Chrome/128.0.6613.36 Electron/32.0.1 Safari/537.36" version="24.7.8">
  <diagram name="Page-1" id="Ska4GVIrNM6ciJGbLAI_">
    <mxGraphModel dx="1948" dy="-2312" grid="1" gridSize="10" guides="1" tooltips="1" connect="1" arrows="1" fold="1" page="1" pageScale="1" pageWidth="850" pageHeight="1100" math="0" shadow="0">
      <root>
        <mxCell id="0" />
        <mxCell id="1" parent="0" />
        <mxCell id="0uuMzzwLtrFkSPka0M2Q-1" value="" style="group" vertex="1" connectable="0" parent="1">
          <mxGeometry x="-760" y="3360" width="640" height="440" as="geometry" />
        </mxCell>
        <mxCell id="0uuMzzwLtrFkSPka0M2Q-2" value="&lt;b&gt;&lt;font&gt;VCN&lt;/font&gt;&lt;/b&gt;" style="whiteSpace=wrap;html=1;strokeWidth=2;dashed=1;align=left;fontFamily=Oracle Sans;verticalAlign=top;fillColor=none;fontColor=#AE562C;strokeColor=#AE562C;perimeterSpacing=0;fontSize=12;spacingLeft=5;" vertex="1" parent="0uuMzzwLtrFkSPka0M2Q-1">
          <mxGeometry y="88" width="640" height="352" as="geometry" />
        </mxCell>
        <mxCell id="0uuMzzwLtrFkSPka0M2Q-3" value="" style="shape=image;verticalLabelPosition=bottom;verticalAlign=top;imageAspect=0;aspect=fixed;image=data:image/svg+xml,PHN2ZyB4bWxucz0iaHR0cDovL3d3dy53My5vcmcvMjAwMC9zdmciIHhtbG5zOnhsaW5rPSJodHRwOi8vd3d3LnczLm9yZy8xOTk5L3hsaW5rIiB2ZXJzaW9uPSIxLjEiIGlkPSJMYXllcl8xIiB4PSIwcHgiIHk9IjBweCIgdmlld0JveD0iMCAwIDQzLjUgNDIiIHN0eWxlPSJlbmFibGUtYmFja2dyb3VuZDpuZXcgMCAwIDQzLjUgNDI7IiB4bWw6c3BhY2U9InByZXNlcnZlIiB3aWR0aD0iNDMuNSIgaGVpZ2h0PSI0MiI+JiN4YTs8Zz4mI3hhOwk8Zz4mI3hhOwkJPHBhdGggc3R5bGU9ImZpbGw6I0ZGRkZGRjsiIGQ9Ik0zMS4yLDQxLjVjLTIuOCwwLTUuMy0yLTUuOS00LjhoLTcuMWMtMC42LDIuNy0zLDQuOC01LjksNC44Yy0zLjMsMC02LTIuNy02LTYmIzEwOyYjOTsmIzk7JiM5O2MwLTIuMSwxLjItNC4xLDMtNS4ybC0yLjItNi43Yy0wLjIsMC0wLjQsMC0wLjYsMGMtMy4zLDAtNi0yLjctNi02YzAtMy4zLDIuNy02LDYtNmMxLjUsMCwyLjksMC41LDQsMS42TDE2LjMsOSYjMTA7JiM5OyYjOTsmIzk7Yy0wLjMtMC44LTAuNS0xLjYtMC41LTIuNWMwLTMuMywyLjctNiw2LTZzNiwyLjcsNiw2YzAsMC44LTAuMiwxLjctMC41LDIuNWw1LjcsNC4yYzEuMS0xLDIuNS0xLjYsNC0xLjZjMy4zLDAsNiwyLjcsNiw2JiMxMDsmIzk7JiM5OyYjOTtzLTIuNyw2LTYsNmMtMC4yLDAtMC40LDAtMC42LDBsLTIuMiw2LjdjMS44LDEuMSwzLDMuMSwzLDUuMkMzNy4yLDM4LjgsMzQuNSw0MS41LDMxLjIsNDEuNXoiLz4mI3hhOwkJPHBhdGggc3R5bGU9ImZpbGw6I0ZGRkZGRjsiIGQ9Ik0yMS43LDFjMywwLDUuNSwyLjUsNS41LDUuNWMwLDAuOS0wLjIsMS44LTAuNywyLjZsNi40LDQuN2MxLTEuMSwyLjQtMS43LDQtMS43JiMxMDsmIzk7JiM5OyYjOTtjMywwLDUuNSwyLjUsNS41LDUuNWMwLDMtMi41LDUuNS01LjUsNS41Yy0wLjMsMC0wLjcsMC0xLTAuMWwtMi41LDcuNWMxLjgsMC45LDMuMSwyLjgsMy4xLDVjMCwzLTIuNSw1LjUtNS41LDUuNSYjMTA7JiM5OyYjOTsmIzk7Yy0yLjgsMC01LjEtMi4xLTUuNS00LjhoLTcuOWMtMC40LDIuNy0yLjcsNC44LTUuNSw0LjhjLTMsMC01LjUtMi41LTUuNS01LjVjMC0yLjIsMS4zLTQuMSwzLjEtNUw3LjUsMjNjLTAuMywwLjEtMC43LDAuMS0xLDAuMSYjMTA7JiM5OyYjOTsmIzk7Yy0zLDAtNS41LTIuNS01LjUtNS41czIuNS01LjUsNS41LTUuNWMxLjYsMCwzLDAuNyw0LDEuN2w2LjQtNC43Yy0wLjQtMC44LTAuNy0xLjctMC43LTIuNkMxNi4yLDMuNSwxOC43LDEsMjEuNywxIE0yMS43LDAmIzEwOyYjOTsmIzk7JiM5O2MtMy42LDAtNi41LDIuOS02LjUsNi41YzAsMC44LDAuMSwxLjYsMC40LDIuM2wtNS4xLDMuN2MtMS4xLTAuOS0yLjYtMS40LTQtMS40QzIuOSwxMS4xLDAsMTQsMCwxNy42czIuOSw2LjUsNi41LDYuNSYjMTA7JiM5OyYjOTsmIzk7YzAuMSwwLDAuMiwwLDAuMywwbDEuOSw2Yy0xLjgsMS4yLTIuOSwzLjItMi45LDUuNGMwLDMuNiwyLjksNi41LDYuNSw2LjVjMi45LDAsNS41LTIsNi4zLTQuOGg2LjNjMC44LDIuOCwzLjMsNC44LDYuMyw0LjgmIzEwOyYjOTsmIzk7JiM5O2MzLjYsMCw2LjUtMi45LDYuNS02LjVjMC0yLjItMS4xLTQuMi0yLjktNS40bDEuOS02YzAuMSwwLDAuMiwwLDAuMywwYzMuNiwwLDYuNS0yLjksNi41LTYuNWMwLTMuNi0yLjktNi41LTYuNS02LjUmIzEwOyYjOTsmIzk7JiM5O2MtMS41LDAtMi45LDAuNS00LjEsMS40bC01LjEtMy43YzAuMy0wLjcsMC40LTEuNSwwLjQtMi4zQzI4LjMsMi45LDI1LjMsMCwyMS43LDBMMjEuNywweiIvPiYjeGE7CTwvZz4mI3hhOwk8Zz4mI3hhOwkJPHBhdGggc3R5bGU9ImZpbGw6I0JCNTAxQzsiIGQ9Ik0zNywxMi4xYy0xLjYsMC0zLDAuNy00LDEuN2wtNi40LTQuN2MwLjQtMC44LDAuNy0xLjcsMC43LTIuNmMwLTMtMi41LTUuNS01LjUtNS41JiMxMDsmIzk7JiM5OyYjOTtzLTUuNSwyLjUtNS41LDUuNWMwLDAuOSwwLjIsMS44LDAuNywyLjZsLTYuNCw0LjdjLTEtMS0yLjQtMS43LTQtMS43Yy0zLDAtNS41LDIuNS01LjUsNS41czIuNSw1LjUsNS41LDUuNWMwLjMsMCwwLjcsMCwxLTAuMSYjMTA7JiM5OyYjOTsmIzk7bDIuNCw3LjVjLTEuOCwwLjktMy4xLDIuOC0zLjEsNWMwLDMsMi41LDUuNSw1LjUsNS41YzIuOCwwLDUuMS0yLjEsNS41LTQuOGg3LjljMC40LDIuNywyLjcsNC44LDUuNSw0LjhjMywwLDUuNS0yLjUsNS41LTUuNSYjMTA7JiM5OyYjOTsmIzk7YzAtMi4yLTEuMy00LjEtMy4xLTVMMzYsMjNjMC4zLDAuMSwwLjcsMC4xLDEsMC4xYzMsMCw1LjUtMi41LDUuNS01LjVTNDAsMTIuMSwzNywxMi4xeiBNMzEuMiwzOS41Yy0yLjIsMC00LTEuOC00LTQmIzEwOyYjOTsmIzk7JiM5O2MwLTIuMiwxLjgtNCw0LTRzNCwxLjgsNCw0QzM1LjIsMzcuNywzMy40LDM5LjUsMzEuMiwzOS41eiBNMTcuOCwzNC44Yy0wLjItMS4zLTAuOC0yLjQtMS43LTMuM2wzLTQuMmMwLjgsMC40LDEuNywwLjcsMi42LDAuNyYjMTA7JiM5OyYjOTsmIzk7YzAuOSwwLDEuOC0wLjIsMi42LTAuN2wzLDQuMmMtMC45LDAuOC0xLjUsMi0xLjcsMy4zSDE3Ljh6IE04LjMsMzUuNWMwLTIuMiwxLjgtNCw0LTRzNCwxLjgsNCw0YzAsMi4yLTEuOCw0LTQsNCYjMTA7JiM5OyYjOTsmIzk7UzguMywzNy43LDguMywzNS41eiBNNi41LDEzLjVjMi4yLDAsNCwxLjgsNCw0cy0xLjgsNC00LDRzLTQtMS44LTQtNFM0LjMsMTMuNSw2LjUsMTMuNXogTTE3LjcsNi41YzAtMi4yLDEuOC00LDQtNHM0LDEuOCw0LDQmIzEwOyYjOTsmIzk7JiM5O3MtMS44LDQtNCw0UzE3LjcsOC43LDE3LjcsNi41eiBNMzEuNiwxOC41bC00LjksMS42Yy0wLjgtMS42LTIuNC0yLjgtNC4yLTMuMVYxMmMxLjMtMC4yLDIuNC0wLjgsMy4yLTEuN2w2LjQsNC43JiMxMDsmIzk7JiM5OyYjOTtjLTAuNCwwLjgtMC43LDEuNy0wLjcsMi42QzMxLjUsMTcuOSwzMS41LDE4LjIsMzEuNiwxOC41eiBNMjUuOCwyMi41YzAsMi4yLTEuOCw0LTQsNHMtNC0xLjgtNC00czEuOC00LDQtNFMyNS44LDIwLjIsMjUuOCwyMi41eiYjMTA7JiM5OyYjOTsmIzk7IE0yMSwxMlYxN2MtMS45LDAuMy0zLjUsMS40LTQuMiwzLjFsLTQuOS0xLjZjMC4xLTAuMywwLjEtMC42LDAuMS0xYzAtMC45LTAuMi0xLjgtMC43LTIuNmw2LjQtNC43QzE4LjYsMTEuMiwxOS43LDExLjgsMjEsMTJ6JiMxMDsmIzk7JiM5OyYjOTsgTTExLjUsMTkuOWw0LjksMS42Yy0wLjEsMC4zLTAuMSwwLjYtMC4xLDFjMCwxLjYsMC43LDMsMS43LDRsLTMsNC4yYy0wLjgtMC40LTEuNy0wLjctMi42LTAuN2MtMC4zLDAtMC43LDAtMSwwLjFsLTIuNC03LjUmIzEwOyYjOTsmIzk7JiM5O0MxMCwyMiwxMC45LDIxLjEsMTEuNSwxOS45eiBNMzEuMiwzMGMtMC45LDAtMS44LDAuMi0yLjYsMC43bC0zLTQuMmMxLjEtMSwxLjctMi40LDEuNy00YzAtMC4zLDAtMC43LTAuMS0xbDQuOS0xLjYmIzEwOyYjOTsmIzk7JiM5O2MwLjUsMS4xLDEuNSwyLDIuNiwyLjZsLTIuNSw3LjVDMzEuOCwzMCwzMS41LDMwLDMxLjIsMzB6IE0zMywxNy42YzAtMi4yLDEuOC00LDQtNHM0LDEuOCw0LDRzLTEuOCw0LTQsNFMzMywxOS44LDMzLDE3LjZ6Ii8+JiN4YTsJPC9nPiYjeGE7PC9nPiYjeGE7PC9zdmc+;dashed=1;dashPattern=1 1;strokeColor=#bb511c;strokeWidth=3;fontColor=#AE562C;fontFamily=Helvetica;fontSize=12;fillColor=#FCFBFA;" vertex="1" parent="0uuMzzwLtrFkSPka0M2Q-1">
          <mxGeometry x="600" y="44" width="80.96" height="77.28" as="geometry" />
        </mxCell>
        <mxCell id="0uuMzzwLtrFkSPka0M2Q-4" value="" style="group" vertex="1" connectable="0" parent="0uuMzzwLtrFkSPka0M2Q-1">
          <mxGeometry x="30" y="121.28" width="570" height="278.72" as="geometry" />
        </mxCell>
        <mxCell id="0uuMzzwLtrFkSPka0M2Q-5" value="&lt;b&gt;Subnet&lt;/b&gt;&lt;br&gt;&lt;div style=&quot;color: rgb(59, 59, 59); background-color: rgb(255, 255, 255); font-family: Consolas, &amp;quot;Courier New&amp;quot;, monospace; font-size: 16px; line-height: 22px; white-space: pre;&quot;&gt;&lt;span style=&quot;color: #a31515;&quot;&gt;10.1.0.0/16&lt;/span&gt;&lt;/div&gt;" style="whiteSpace=wrap;html=1;strokeWidth=1;dashed=1;align=left;fontFamily=Oracle Sans;verticalAlign=top;fillColor=none;fontColor=#AE562C;perimeterSpacing=0;strokeColor=#AE562C;fontSize=12;spacingLeft=5;" vertex="1" parent="0uuMzzwLtrFkSPka0M2Q-4">
          <mxGeometry y="52.730810810810816" width="570" height="225.9891891891892" as="geometry" />
        </mxCell>
        <mxCell id="0uuMzzwLtrFkSPka0M2Q-15" value="Load&#xa;Balancer" style="shape=image;verticalLabelPosition=bottom;verticalAlign=top;imageAspect=0;aspect=fixed;image=data:image/svg+xml,PHN2ZyB4bWxucz0iaHR0cDovL3d3dy53My5vcmcvMjAwMC9zdmciIHhtbG5zOnhsaW5rPSJodHRwOi8vd3d3LnczLm9yZy8xOTk5L3hsaW5rIiB2ZXJzaW9uPSIxLjEiIGlkPSJMYXllcl8xIiB4PSIwcHgiIHk9IjBweCIgdmlld0JveD0iMCAwIDQyLjM4OTk5OTM4OTY0ODQ0IDQyIiBzdHlsZT0iZW5hYmxlLWJhY2tncm91bmQ6bmV3IDAgMCA0Mi4zOCA0MjsiIHhtbDpzcGFjZT0icHJlc2VydmUiIHdpZHRoPSI0Mi4zODk5OTkzODk2NDg0NCIgaGVpZ2h0PSI0MiI+JiN4YTs8c3R5bGUgdHlwZT0idGV4dC9jc3MiPiYjeGE7CS5zdDB7ZmlsbDojRkZGRkZGO30mI3hhOwkuc3Qxe2ZpbGw6bm9uZTt9JiN4YTsJLnN0MntmaWxsOiMyQzU5Njc7fSYjeGE7PC9zdHlsZT4mI3hhOzxnPiYjeGE7CTxnPiYjeGE7CQk8Zz4mI3hhOwkJCTxwYXRoIGNsYXNzPSJzdDAiIGQ9Ik0zNC4yLDQxLjV2LTIuNDhoMy4wMUwyMy4xNiwyNC45NmMtMC4zNyw0Ljc2LTEuNDYsOC45NS0zLjE3LDEyLjE4Yy0yLjEsMy41Ni00LjIyLDQuMjktNS42Myw0LjI5JiMxMDsmIzk7JiM5OyYjOTsmIzk7Yy0wLjI1LDAtMC41MS0wLjAyLTAuNzYtMC4wN2MtNC4wMy0wLjc0LTYuNDYtNi43OS03LjQtMTIuMjFjLTAuMzgtMi4wMy0wLjYyLTQuNDEtMC42Ny02LjkxSDAuNXYtMi40OGg1LjAzJiMxMDsmIzk7JiM5OyYjOTsmIzk7YzAuMDYtMi41OSwwLjMxLTUuMDcsMC43Mi03LjE3QzcuNTYsNS4yMywxMC42OSwwLjY0LDE0LjQyLDAuNmMyLjE4LDAsNi4wOCwxLjU5LDguMTgsMTIuMjNjMC4yNCwxLjM1LDAuNDEsMi43NSwwLjUzLDQuMiYjMTA7JiM5OyYjOTsmIzk7JiM5O0wzNy4xNywyLjk4SDM0LjJWMC41aDcuM3Y3LjNoLTIuNDhWNC42NEwyMy45LDE5Ljc2aDEyLjg4bC0yLTEuOTFsMS43MS0xLjhsNS4xNyw0LjkybC01LjE0LDUuMTRsLTEuNzUtMS43NWwyLjEyLTIuMTNIMjMuOTUmIzEwOyYjOTsmIzk7JiM5OyYjOTtsMTUuMDcsMTUuMDdWMzQuMmgyLjQ4djcuM0gzNC4yeiIvPiYjeGE7CQkJPHBhdGggY2xhc3M9InN0MCIgZD0iTTQxLDF2Ni4zaC0xLjQ4VjMuNDRMMjIuNzksMjAuMTdjMCwwLjAzLDAsMC4wNiwwLDAuMDloMTUuMjVsLTIuNTUtMi40M2wxLjAyLTEuMDdsNC40NCw0LjIzbC00LjQzLDQuNDMmIzEwOyYjOTsmIzk7JiM5OyYjOTtsLTEuMDUtMS4wNWwyLjYyLTIuNjJIMjIuNzljMCwwLjAyLDAsMC4wMywwLDAuMDVsMTYuNzIsMTYuNzJWMzQuN0g0MVY0MWgtNi4zdi0xLjQ4aDMuNzJsLTE1LjctMTUuNyYjMTA7JiM5OyYjOTsmIzk7JiM5O2MtMC4yNSw0LjU3LTEuMTcsOS4yOC0zLjE4LDEzLjA4bC0wLjAyLDAuMDRjLTEuODgsMy4xOS0zLjc1LDMuOTktNS4xNywzLjk5Yy0wLjI0LDAtMC40Ny0wLjAyLTAuNjgtMC4wNiYjMTA7JiM5OyYjOTsmIzk7JiM5O2MtMy43OC0wLjY5LTYuMTMtNi43OS02Ljk5LTExLjgxYy0wLjQyLTIuMi0wLjY0LTQuNzUtMC42OC03LjMySDF2LTEuNDhoNS4wMmMwLjA0LTIuNjcsMC4yOC01LjMxLDAuNzItNy41OCYjMTA7JiM5OyYjOTsmIzk7JiM5O0M4LDUuNTcsMTAuOTUsMS4xMywxNC40MiwxLjFjMC4wMSwwLDAuMDIsMCwwLjA0LDBjMiwwLDUuNjIsMS41NSw3LjY0LDExLjgybDAsMC4wMmMwLjI3LDEuNTYsMC40OSwzLjMzLDAuNiw1LjIxTDM4LjM4LDIuNDgmIzEwOyYjOTsmIzk7JiM5OyYjOTtIMzQuN1YxSDQxIE00MiwwaC0xaC02LjNoLTF2MXYxLjQ4djFoMWgxLjI2TDIzLjUzLDE1LjkyYy0wLjExLTEuMDktMC4yNi0yLjE0LTAuNDQtMy4xNUMyMS4wMiwyLjI5LDE3LjI2LDAuMSwxNC40NiwwLjEmIzEwOyYjOTsmIzk7JiM5OyYjOTtjLTQuMDksMC4wNC03LjMzLDQuNjgtOC43MSwxMi40MWMtMC4zOSwxLjk5LTAuNjMsNC4zMS0wLjcxLDYuNzVIMUgwdjF2MS40OHYxaDFoNC4wNGMwLjA4LDIuMzQsMC4zMSw0LjU4LDAuNjcsNi41MSYjMTA7JiM5OyYjOTsmIzk7JiM5O2MwLjk2LDUuNTcsMy41MSwxMS44Miw3LjgsMTIuNmMwLjI4LDAuMDUsMC41NywwLjA4LDAuODYsMC4wOGMxLjU0LDAsMy44NC0wLjc4LDYuMDMtNC40OGwwLTAuMDFsMC4wMy0wLjA1JiMxMDsmIzk7JiM5OyYjOTsmIzk7YzEuNjItMy4wNiwyLjY5LTYuOTQsMy4xNC0xMS4zM2wxMi40NSwxMi40NUgzNC43aC0xdjFWNDF2MWgxSDQxaDF2LTF2LTYuM3YtMWgtMWgtMS40OGgtMXYxdjEuNEwyNS4xNiwyMi43NGgxMC41M2wtMC45MiwwLjkyJiMxMDsmIzk7JiM5OyYjOTsmIzk7bC0wLjcxLDAuNzFsMC43MSwwLjcxbDEuMDUsMS4wNWwwLjcxLDAuNzFsMC43MS0wLjcxbDQuNDMtNC40M2wwLjcyLTAuNzJsLTAuNzQtMC43MWwtNC40NC00LjIzbC0wLjcyLTAuNjlsLTAuNjksMC43MiYjMTA7JiM5OyYjOTsmIzk7JiM5O2wtMS4wMiwxLjA3bC0wLjY5LDAuNzJsMC43MiwwLjY5bDAuNzQsMC43SDI1LjExTDM4LjUyLDUuODVWNy4zdjFoMUg0MWgxdi0xVjFWMEw0MiwweiIvPiYjeGE7CQk8L2c+JiN4YTsJCTxnPiYjeGE7CQkJPHBhdGggY2xhc3M9InN0MSIgZD0iTTE0LjQ2LDIuOTVjLTAuMDEsMC0wLjAxLDAtMC4wMiwwYy0xLjk3LDAuMDItNC42NiwzLjE4LTUuODgsMTAuMDZsMCwwLjAyYy0wLjQyLDIuMTctMC42NSw0LjY4LTAuNjksNy4yMyYjMTA7JiM5OyYjOTsmIzk7JiM5O2g4Ljg4bC0yLjc0LTIuNjFsMS4wMi0xLjA3bDQuNjIsNC40MWwtNC40Myw0LjQybC0xLjA1LTEuMDVsMi42Mi0yLjYySDcuODZjMC4wNCwyLjQ2LDAuMjUsNC44OSwwLjY1LDYuOTkmIzEwOyYjOTsmIzk7JiM5OyYjOTtjMC45Niw1LjU3LDMuMjcsOS45LDUuNTEsMTAuMzFjMC4xMSwwLjAyLDAuMjMsMC4wMywwLjM0LDAuMDNjMS40MywwLDIuNzEtMS42MywzLjU2LTMuMDZjMy4yOS02LjI1LDMuNTYtMTUuOTIsMi4zNi0yMi43NSYjMTA7JiM5OyYjOTsmIzk7JiM5O0MxOC43OCw1LjY2LDE2LjI5LDIuOTUsMTQuNDYsMi45NXoiLz4mI3hhOwkJCTxwYXRoIGNsYXNzPSJzdDIiIGQ9Ik00MSw3LjNWMWgtNi4zdjEuNDhoMy42N0wyMi43MSwxOC4xNWMtMC4xMS0xLjg4LTAuMzItMy42NS0wLjYtNS4yMWwwLTAuMDJDMjAuMDgsMi42NSwxNi40NiwxLjEsMTQuNDYsMS4xJiMxMDsmIzk7JiM5OyYjOTsmIzk7Yy0wLjAxLDAtMC4wMiwwLTAuMDQsMEMxMC45NSwxLjEzLDgsNS41Nyw2Ljc0LDEyLjY4Yy0wLjQ0LDIuMjctMC42OCw0LjkxLTAuNzIsNy41OEgxdjEuNDhoNS4wMWMwLjA0LDIuNTgsMC4yNiw1LjEyLDAuNjgsNy4zMiYjMTA7JiM5OyYjOTsmIzk7JiM5O2MwLjg2LDUuMDEsMy4yMSwxMS4xMSw2Ljk5LDExLjgxYzAuMjEsMC4wNCwwLjQ0LDAuMDYsMC42OCwwLjA2YzEuNDEsMCwzLjI4LTAuOCw1LjE3LTMuOTlsMC4wMi0wLjA0JiMxMDsmIzk7JiM5OyYjOTsmIzk7YzIuMDEtMy44LDIuOTMtOC41MSwzLjE4LTEzLjA4bDE1LjcsMTUuN0gzNC43VjQxSDQxdi02LjNoLTEuNDh2My44MUwyMi43OSwyMS43OWMwLTAuMDIsMC0wLjAzLDAtMC4wNUgzOC4xbC0yLjYyLDIuNjImIzEwOyYjOTsmIzk7JiM5OyYjOTtsMS4wNSwxLjA1bDQuNDMtNC40M2wtNC40NC00LjIzbC0xLjAyLDEuMDdsMi41NSwyLjQzSDIyLjc5YzAtMC4wMywwLTAuMDYsMC0wLjA5TDM5LjUyLDMuNDRWNy4zSDQxeiBNMTcuOTIsMzYuMDImIzEwOyYjOTsmIzk7JiM5OyYjOTtjLTAuODUsMS40My0yLjEzLDMuMDYtMy41NiwzLjA2Yy0wLjExLDAtMC4yMy0wLjAxLTAuMzQtMC4wM2MtMi4yMy0wLjQxLTQuNTUtNC43NC01LjUxLTEwLjMxYy0wLjQtMi4xMS0wLjYxLTQuNTQtMC42NS02Ljk5JiMxMDsmIzk7JiM5OyYjOTsmIzk7aDguOTRsLTIuNjIsMi42MmwxLjA1LDEuMDVsNC40My00LjQybC00LjYyLTQuNDFsLTEuMDIsMS4wN2wyLjc0LDIuNjFINy44NmMwLjA0LTIuNTUsMC4yNy01LjA2LDAuNjktNy4yM2wwLTAuMDImIzEwOyYjOTsmIzk7JiM5OyYjOTtjMS4yMi02Ljg5LDMuOTEtMTAuMDQsNS44OC0xMC4wNmMwLjAxLDAsMC4wMSwwLDAuMDIsMGMxLjgzLDAsNC4zMiwyLjcxLDUuODMsMTAuMzJDMjEuNDgsMjAuMDksMjEuMjEsMjkuNzcsMTcuOTIsMzYuMDJ6Ii8+JiN4YTsJCTwvZz4mI3hhOwk8L2c+JiN4YTs8L2c+JiN4YTs8L3N2Zz4=;fontColor=#312D2A;strokeColor=#9E9892;fillColor=#FCFBFA;container=0;" vertex="1" parent="0uuMzzwLtrFkSPka0M2Q-4">
          <mxGeometry x="250" y="73.72378190255176" width="50" height="50" as="geometry" />
        </mxCell>
        <mxCell id="0uuMzzwLtrFkSPka0M2Q-17" value="" style="group" vertex="1" connectable="0" parent="0uuMzzwLtrFkSPka0M2Q-4">
          <mxGeometry x="180.0000000000001" y="188.7239211136889" width="50" height="80.37190255220412" as="geometry" />
        </mxCell>
        <mxCell id="0uuMzzwLtrFkSPka0M2Q-18" value="" style="shape=image;verticalLabelPosition=bottom;verticalAlign=top;imageAspect=0;aspect=fixed;image=data:image/svg+xml,PHN2ZyB4bWxucz0iaHR0cDovL3d3dy53My5vcmcvMjAwMC9zdmciIHhtbG5zOnhsaW5rPSJodHRwOi8vd3d3LnczLm9yZy8xOTk5L3hsaW5rIiB2ZXJzaW9uPSIxLjEiIGlkPSJMYXllcl8xIiB4PSIwcHgiIHk9IjBweCIgdmlld0JveD0iMCAwIDQyIDQyIiBzdHlsZT0iZW5hYmxlLWJhY2tncm91bmQ6bmV3IDAgMCA0MiA0MjsiIHhtbDpzcGFjZT0icHJlc2VydmUiIHdpZHRoPSI0MiIgaGVpZ2h0PSI0MiI+JiN4YTs8c3R5bGUgdHlwZT0idGV4dC9jc3MiPiYjeGE7CS5zdDB7ZmlsbDojRkZGRkZGO30mI3hhOwkuc3Qxe2ZpbGw6IzJDNTk2Nzt9JiN4YTs8L3N0eWxlPiYjeGE7PGc+JiN4YTsJPGc+JiN4YTsJCTxwYXRoIGNsYXNzPSJzdDAiIGQ9Ik0yLjY3LDQxLjVjLTEuMTksMC0yLjE3LTAuOTctMi4xNy0yLjE3VjIuNjdjMC0xLjE5LDAuOTctMi4xNywyLjE3LTIuMTdoMzYuNjdjMS4xOSwwLDIuMTcsMC45NywyLjE3LDIuMTcmIzEwOyYjOTsmIzk7JiM5O3YzNi42N2MwLDEuMTktMC45NywyLjE3LTIuMTcsMi4xN0gyLjY3eiIvPiYjeGE7CQk8cGF0aCBjbGFzcz0ic3QwIiBkPSJNMzkuMzMsMUM0MC4yNSwxLDQxLDEuNzUsNDEsMi42N3YzNi42N2MwLDAuOTItMC43NSwxLjY3LTEuNjcsMS42N0gyLjY3QzEuNzUsNDEsMSw0MC4yNSwxLDM5LjMzVjIuNjcmIzEwOyYjOTsmIzk7JiM5O0MxLDEuNzUsMS43NSwxLDIuNjcsMUgzOS4zMyBNMzkuMzMsMEgyLjY3QzEuMiwwLDAsMS4yLDAsMi42N3YzNi42N0MwLDQwLjgsMS4yLDQyLDIuNjcsNDJoMzYuNjdDNDAuOCw0Miw0Miw0MC44LDQyLDM5LjMzVjIuNjcmIzEwOyYjOTsmIzk7JiM5O0M0MiwxLjIsNDAuOCwwLDM5LjMzLDBMMzkuMzMsMHoiLz4mI3hhOwk8L2c+JiN4YTsJPGc+JiN4YTsJCTxwYXRoIGNsYXNzPSJzdDEiIGQ9Ik0zOS4zMywxSDIuNjdDMS43NSwxLDEsMS43NSwxLDIuNjd2MzYuNjdDMSw0MC4yNSwxLjc1LDQxLDIuNjcsNDFoMzYuNjdjMC45MiwwLDEuNjctMC43NSwxLjY3LTEuNjdWMi42NyYjMTA7JiM5OyYjOTsmIzk7QzQxLDEuNzUsNDAuMjUsMSwzOS4zMywxeiBNMzkuNTIsMzkuMzNjMCwwLjEtMC4wOCwwLjE5LTAuMTksMC4xOUgyLjY3Yy0wLjEsMC0wLjE5LTAuMDgtMC4xOS0wLjE5VjIuNjcmIzEwOyYjOTsmIzk7JiM5O2MwLTAuMSwwLjA4LTAuMTksMC4xOS0wLjE5aDM2LjY3YzAuMSwwLDAuMTksMC4wOCwwLjE5LDAuMTlWMzkuMzN6Ii8+JiN4YTsJCTxwYXRoIGNsYXNzPSJzdDEiIGQ9Ik02LjU2LDM1LjQ0aDI5LjA3di04Ljg5SDYuNTZWMzUuNDR6IE04LjA0LDI4LjA0aDI2LjExdjUuOTNIOC4wNFYyOC4wNHoiLz4mI3hhOwkJPGNpcmNsZSBjbGFzcz0ic3QxIiBjeD0iMzAuODEiIGN5PSIzMSIgcj0iMS4xMSIvPiYjeGE7CQk8cGF0aCBjbGFzcz0ic3QxIiBkPSJNMTUuNDQsNi41Nkg2LjU2djguODloOC44OVY2LjU2eiBNMTMuOTYsMTMuOTZIOC4wNFY4LjA0aDUuOTNWMTMuOTZ6Ii8+JiN4YTsJCTxwYXRoIGNsYXNzPSJzdDEiIGQ9Ik0yNS40NCw2LjU2aC04Ljg5djguODloOC44OVY2LjU2eiBNMjMuOTYsMTMuOTZoLTUuOTNWOC4wNGg1LjkzVjEzLjk2eiIvPiYjeGE7CQk8cGF0aCBjbGFzcz0ic3QxIiBkPSJNMTUuNDQsMTYuNTZINi41NnY4Ljg5aDguODlWMTYuNTZ6IE0xMy45NiwyMy45Nkg4LjA0di01LjkzaDUuOTNWMjMuOTZ6Ii8+JiN4YTsJCTxwYXRoIGNsYXNzPSJzdDEiIGQ9Ik0yNS40NCwxNi41NmgtOC44OXY4Ljg5aDguODlWMTYuNTZ6IE0yMy45NiwyMy45NmgtNS45M3YtNS45M2g1LjkzVjIzLjk2eiIvPiYjeGE7CQk8cGF0aCBjbGFzcz0ic3QxIiBkPSJNMzUuNDQsNi41NmgtOC44OXY4Ljg5aDguODlWNi41NnogTTMzLjk2LDEzLjk2aC01LjkzVjguMDRoNS45M1YxMy45NnoiLz4mI3hhOwkJPHBhdGggY2xhc3M9InN0MSIgZD0iTTM1LjQ0LDE2LjU2aC04Ljg5djguODloOC44OVYxNi41NnogTTMzLjk2LDIzLjk2aC01Ljkzdi01LjkzaDUuOTNWMjMuOTZ6Ii8+JiN4YTsJPC9nPiYjeGE7PC9nPiYjeGE7PC9zdmc+;fontColor=#312D2A;strokeColor=#9E9892;fillColor=#FCFBFA;container=0;" vertex="1" parent="0uuMzzwLtrFkSPka0M2Q-17">
          <mxGeometry width="50" height="50" as="geometry" />
        </mxCell>
        <UserObject label="Virtual&lt;br&gt;Machine" placeholders="1" name="Variable" id="0uuMzzwLtrFkSPka0M2Q-19">
          <mxCell style="text;html=1;strokeColor=none;fillColor=none;align=center;verticalAlign=middle;whiteSpace=wrap;overflow=hidden;rounded=0;glass=0;dashed=1;sketch=0;" vertex="1" parent="0uuMzzwLtrFkSPka0M2Q-17">
            <mxGeometry y="50.37190255220412" width="50" height="30" as="geometry" />
          </mxCell>
        </UserObject>
        <mxCell id="0uuMzzwLtrFkSPka0M2Q-16" value="" style="group" vertex="1" connectable="0" parent="0uuMzzwLtrFkSPka0M2Q-4">
          <mxGeometry x="270.0000000000001" y="188.7239211136889" width="116.99999999999989" height="80.3760788863112" as="geometry" />
        </mxCell>
        <mxCell id="0uuMzzwLtrFkSPka0M2Q-20" value="" style="group" vertex="1" connectable="0" parent="0uuMzzwLtrFkSPka0M2Q-16">
          <mxGeometry x="57" width="59.999999999999886" height="80.3760788863112" as="geometry" />
        </mxCell>
        <mxCell id="0uuMzzwLtrFkSPka0M2Q-21" value="" style="shape=image;verticalLabelPosition=bottom;verticalAlign=top;imageAspect=0;aspect=fixed;image=data:image/svg+xml,PHN2ZyB4bWxucz0iaHR0cDovL3d3dy53My5vcmcvMjAwMC9zdmciIHhtbG5zOnhsaW5rPSJodHRwOi8vd3d3LnczLm9yZy8xOTk5L3hsaW5rIiB2ZXJzaW9uPSIxLjEiIGlkPSJMYXllcl8xIiB4PSIwcHgiIHk9IjBweCIgdmlld0JveD0iMCAwIDQyIDQyIiBzdHlsZT0iZW5hYmxlLWJhY2tncm91bmQ6bmV3IDAgMCA0MiA0MjsiIHhtbDpzcGFjZT0icHJlc2VydmUiIHdpZHRoPSI0MiIgaGVpZ2h0PSI0MiI+JiN4YTs8c3R5bGUgdHlwZT0idGV4dC9jc3MiPiYjeGE7CS5zdDB7ZmlsbDojRkZGRkZGO30mI3hhOwkuc3Qxe2ZpbGw6IzJDNTk2Nzt9JiN4YTs8L3N0eWxlPiYjeGE7PGc+JiN4YTsJPGc+JiN4YTsJCTxwYXRoIGNsYXNzPSJzdDAiIGQ9Ik0yLjY3LDQxLjVjLTEuMTksMC0yLjE3LTAuOTctMi4xNy0yLjE3VjIuNjdjMC0xLjE5LDAuOTctMi4xNywyLjE3LTIuMTdoMzYuNjdjMS4xOSwwLDIuMTcsMC45NywyLjE3LDIuMTcmIzEwOyYjOTsmIzk7JiM5O3YzNi42N2MwLDEuMTktMC45NywyLjE3LTIuMTcsMi4xN0gyLjY3eiIvPiYjeGE7CQk8cGF0aCBjbGFzcz0ic3QwIiBkPSJNMzkuMzMsMUM0MC4yNSwxLDQxLDEuNzUsNDEsMi42N3YzNi42N2MwLDAuOTItMC43NSwxLjY3LTEuNjcsMS42N0gyLjY3QzEuNzUsNDEsMSw0MC4yNSwxLDM5LjMzVjIuNjcmIzEwOyYjOTsmIzk7JiM5O0MxLDEuNzUsMS43NSwxLDIuNjcsMUgzOS4zMyBNMzkuMzMsMEgyLjY3QzEuMiwwLDAsMS4yLDAsMi42N3YzNi42N0MwLDQwLjgsMS4yLDQyLDIuNjcsNDJoMzYuNjdDNDAuOCw0Miw0Miw0MC44LDQyLDM5LjMzVjIuNjcmIzEwOyYjOTsmIzk7JiM5O0M0MiwxLjIsNDAuOCwwLDM5LjMzLDBMMzkuMzMsMHoiLz4mI3hhOwk8L2c+JiN4YTsJPGc+JiN4YTsJCTxwYXRoIGNsYXNzPSJzdDEiIGQ9Ik0zOS4zMywxSDIuNjdDMS43NSwxLDEsMS43NSwxLDIuNjd2MzYuNjdDMSw0MC4yNSwxLjc1LDQxLDIuNjcsNDFoMzYuNjdjMC45MiwwLDEuNjctMC43NSwxLjY3LTEuNjdWMi42NyYjMTA7JiM5OyYjOTsmIzk7QzQxLDEuNzUsNDAuMjUsMSwzOS4zMywxeiBNMzkuNTIsMzkuMzNjMCwwLjEtMC4wOCwwLjE5LTAuMTksMC4xOUgyLjY3Yy0wLjEsMC0wLjE5LTAuMDgtMC4xOS0wLjE5VjIuNjcmIzEwOyYjOTsmIzk7JiM5O2MwLTAuMSwwLjA4LTAuMTksMC4xOS0wLjE5aDM2LjY3YzAuMSwwLDAuMTksMC4wOCwwLjE5LDAuMTlWMzkuMzN6Ii8+JiN4YTsJCTxwYXRoIGNsYXNzPSJzdDEiIGQ9Ik02LjU2LDM1LjQ0aDI5LjA3di04Ljg5SDYuNTZWMzUuNDR6IE04LjA0LDI4LjA0aDI2LjExdjUuOTNIOC4wNFYyOC4wNHoiLz4mI3hhOwkJPGNpcmNsZSBjbGFzcz0ic3QxIiBjeD0iMzAuODEiIGN5PSIzMSIgcj0iMS4xMSIvPiYjeGE7CQk8cGF0aCBjbGFzcz0ic3QxIiBkPSJNMTUuNDQsNi41Nkg2LjU2djguODloOC44OVY2LjU2eiBNMTMuOTYsMTMuOTZIOC4wNFY4LjA0aDUuOTNWMTMuOTZ6Ii8+JiN4YTsJCTxwYXRoIGNsYXNzPSJzdDEiIGQ9Ik0yNS40NCw2LjU2aC04Ljg5djguODloOC44OVY2LjU2eiBNMjMuOTYsMTMuOTZoLTUuOTNWOC4wNGg1LjkzVjEzLjk2eiIvPiYjeGE7CQk8cGF0aCBjbGFzcz0ic3QxIiBkPSJNMTUuNDQsMTYuNTZINi41NnY4Ljg5aDguODlWMTYuNTZ6IE0xMy45NiwyMy45Nkg4LjA0di01LjkzaDUuOTNWMjMuOTZ6Ii8+JiN4YTsJCTxwYXRoIGNsYXNzPSJzdDEiIGQ9Ik0yNS40NCwxNi41NmgtOC44OXY4Ljg5aDguODlWMTYuNTZ6IE0yMy45NiwyMy45NmgtNS45M3YtNS45M2g1LjkzVjIzLjk2eiIvPiYjeGE7CQk8cGF0aCBjbGFzcz0ic3QxIiBkPSJNMzUuNDQsNi41NmgtOC44OXY4Ljg5aDguODlWNi41NnogTTMzLjk2LDEzLjk2aC01LjkzVjguMDRoNS45M1YxMy45NnoiLz4mI3hhOwkJPHBhdGggY2xhc3M9InN0MSIgZD0iTTM1LjQ0LDE2LjU2aC04Ljg5djguODloOC44OVYxNi41NnogTTMzLjk2LDIzLjk2aC01Ljkzdi01LjkzaDUuOTNWMjMuOTZ6Ii8+JiN4YTsJPC9nPiYjeGE7PC9nPiYjeGE7PC9zdmc+;fontColor=#312D2A;strokeColor=#9E9892;fillColor=#FCFBFA;container=0;" vertex="1" parent="0uuMzzwLtrFkSPka0M2Q-20">
          <mxGeometry width="50" height="50" as="geometry" />
        </mxCell>
        <UserObject label="Virtual&lt;br&gt;Machine" placeholders="1" name="Variable" id="0uuMzzwLtrFkSPka0M2Q-22">
          <mxCell style="text;html=1;strokeColor=none;fillColor=none;align=center;verticalAlign=middle;whiteSpace=wrap;overflow=hidden;rounded=0;glass=0;dashed=1;sketch=0;" vertex="1" parent="0uuMzzwLtrFkSPka0M2Q-20">
            <mxGeometry y="50.37190255220412" width="50" height="30" as="geometry" />
          </mxCell>
        </UserObject>
        <mxCell id="0uuMzzwLtrFkSPka0M2Q-62" value="" style="rounded=0;whiteSpace=wrap;html=1;fillColor=none;strokeColor=#b85450;dashed=1;dashPattern=8 8;" vertex="1" parent="0uuMzzwLtrFkSPka0M2Q-20">
          <mxGeometry x="-10.000000000000114" y="-8.343921113688793" width="70" height="88.72" as="geometry" />
        </mxCell>
        <mxCell id="0uuMzzwLtrFkSPka0M2Q-23" value="" style="endArrow=classic;html=1;rounded=0;" edge="1" parent="0uuMzzwLtrFkSPka0M2Q-4" source="0uuMzzwLtrFkSPka0M2Q-15" target="0uuMzzwLtrFkSPka0M2Q-21">
          <mxGeometry width="50" height="50" relative="1" as="geometry">
            <mxPoint x="300" y="288.7199999999998" as="sourcePoint" />
            <mxPoint x="350" y="238.7199999999998" as="targetPoint" />
          </mxGeometry>
        </mxCell>
        <mxCell id="0uuMzzwLtrFkSPka0M2Q-24" value="" style="endArrow=classic;html=1;rounded=0;" edge="1" parent="0uuMzzwLtrFkSPka0M2Q-4" source="0uuMzzwLtrFkSPka0M2Q-15" target="0uuMzzwLtrFkSPka0M2Q-18">
          <mxGeometry width="50" height="50" relative="1" as="geometry">
            <mxPoint x="302" y="134" as="sourcePoint" />
            <mxPoint x="345" y="199" as="targetPoint" />
          </mxGeometry>
        </mxCell>
        <mxCell id="0uuMzzwLtrFkSPka0M2Q-26" value="" style="rounded=0;whiteSpace=wrap;html=1;fillColor=none;strokeColor=#b85450;dashed=1;dashPattern=8 8;" vertex="1" parent="0uuMzzwLtrFkSPka0M2Q-4">
          <mxGeometry x="170" y="180" width="70" height="88.72" as="geometry" />
        </mxCell>
        <mxCell id="0uuMzzwLtrFkSPka0M2Q-25" value="" style="endArrow=classic;html=1;rounded=0;" edge="1" parent="0uuMzzwLtrFkSPka0M2Q-1" target="0uuMzzwLtrFkSPka0M2Q-15">
          <mxGeometry width="50" height="50" relative="1" as="geometry">
            <mxPoint x="305" y="40" as="sourcePoint" />
            <mxPoint x="295" y="121.2800000000002" as="targetPoint" />
          </mxGeometry>
        </mxCell>
        <mxCell id="0uuMzzwLtrFkSPka0M2Q-63" value="" style="endArrow=classic;html=1;rounded=0;entryX=1;entryY=1;entryDx=0;entryDy=0;" edge="1" parent="1" target="0uuMzzwLtrFkSPka0M2Q-26">
          <mxGeometry width="50" height="50" relative="1" as="geometry">
            <mxPoint x="-475" y="3910" as="sourcePoint" />
            <mxPoint x="-425" y="3860" as="targetPoint" />
          </mxGeometry>
        </mxCell>
        <mxCell id="0uuMzzwLtrFkSPka0M2Q-64" value="&lt;h1 style=&quot;margin-top: 0px;&quot;&gt;Network Security List&lt;/h1&gt;&lt;p&gt;Open Ports:&lt;/p&gt;&lt;p&gt;80&lt;/p&gt;&lt;p&gt;443&lt;/p&gt;" style="text;html=1;whiteSpace=wrap;overflow=hidden;rounded=0;" vertex="1" parent="1">
          <mxGeometry x="-480" y="3910" width="285" height="120" as="geometry" />
        </mxCell>
        <mxCell id="0uuMzzwLtrFkSPka0M2Q-65" value="" style="endArrow=classic;html=1;rounded=0;entryX=0;entryY=1;entryDx=0;entryDy=0;" edge="1" parent="1" target="0uuMzzwLtrFkSPka0M2Q-62">
          <mxGeometry width="50" height="50" relative="1" as="geometry">
            <mxPoint x="-470" y="3910" as="sourcePoint" />
            <mxPoint x="-480" y="3760" as="targetPoint" />
          </mxGeometry>
        </mxCell>
      </root>
    </mxGraphModel>
  </diagram>
</mxfile>
